STARTFONT 2.1
FONT -Bitstream-Charter-Medium-R-Normal--17-120-100-100-P-95-ISO8859-15
SIZE 12 100 100
FONTBOUNDINGBOX 17 20 -2 -4

STARTPROPERTIES 25
FONTNAME_REGISTRY ""
FAMILY_NAME "Charter"
FOUNDRY "Bitstream"
WEIGHT_NAME "Medium"
SETWIDTH_NAME "Normal"
SLANT "R"
ADD_STYLE_NAME ""
PIXEL_SIZE 17
POINT_SIZE 120
RESOLUTION_X 100
RESOLUTION_Y 100
SPACING "P"
AVERAGE_WIDTH 95
CHARSET_REGISTRY "ISO8859"
CHARSET_ENCODING "15"
CAP_HEIGHT 11
X_HEIGHT 8
CHARSET_COLLECTIONS "ASCII ISOLATIN1"
FACE_NAME "Bitstream Charter Roman"
COPYRIGHT "Copyright 1987 by Bitstream Inc. Charter Registered trademark of Bitstream Inc."
WEIGHT 10
QUAD_WIDTH 10
DEFAULT_CHAR 0
FONT_DESCENT 4
FONT_ASCENT 16
ENDPROPERTIES

CHARS 191

STARTCHAR space
ENCODING 32
SWIDTH 278 0
DWIDTH 5 0
BBX 1 1 0 0
BITMAP
00
ENDCHAR

STARTCHAR exclam
ENCODING 33
SWIDTH 338 0
DWIDTH 6 0
BBX 2 11 2 0
BITMAP
C0
C0
C0
C0
C0
C0
C0
40
00
C0
C0
ENDCHAR

STARTCHAR quotedbl
ENCODING 34
SWIDTH 331 0
DWIDTH 7 0
BBX 5 5 1 7
BITMAP
D8
D8
D8
48
48
ENDCHAR

STARTCHAR numbersign
ENCODING 35
SWIDTH 745 0
DWIDTH 12 0
BBX 10 12 1 0
BITMAP
0480
0880
0900
0900
7FC0
1200
1200
FF80
2400
2400
4400
4800
ENDCHAR

STARTCHAR dollar
ENCODING 36
SWIDTH 556 0
DWIDTH 9 0
BBX 7 15 1 -2
BITMAP
10
10
3E
D2
92
90
F0
7C
16
12
92
94
F8
10
10
ENDCHAR

STARTCHAR percent
ENCODING 37
SWIDTH 852 0
DWIDTH 14 0
BBX 13 11 1 0
BITMAP
7040
8840
8880
8900
8970
8A88
7488
0488
0888
1088
1070
ENDCHAR

STARTCHAR ampersand
ENCODING 38
SWIDTH 704 0
DWIDTH 12 0
BBX 11 11 1 0
BITMAP
3C00
4600
4200
6200
7C00
79E0
CC80
8680
8300
E380
7CE0
ENDCHAR

STARTCHAR quoteright
ENCODING 39
SWIDTH 201 0
DWIDTH 3 0
BBX 2 5 1 7
BITMAP
C0
C0
40
40
80
ENDCHAR

STARTCHAR parenleft
ENCODING 40
SWIDTH 417 0
DWIDTH 7 0
BBX 5 14 2 -2
BITMAP
18
60
40
C0
80
80
80
80
80
80
C0
40
60
18
ENDCHAR

STARTCHAR parenright
ENCODING 41
SWIDTH 417 0
DWIDTH 7 0
BBX 5 14 0 -2
BITMAP
C0
20
10
18
08
08
08
08
08
08
08
10
30
C0
ENDCHAR

STARTCHAR asterisk
ENCODING 42
SWIDTH 500 0
DWIDTH 8 0
BBX 7 6 1 6
BITMAP
10
10
FE
00
28
6C
ENDCHAR

STARTCHAR plus
ENCODING 43
SWIDTH 833 0
DWIDTH 14 0
BBX 9 11 3 0
BITMAP
0800
0800
0800
0800
0800
FF80
0800
0800
0800
0800
0800
ENDCHAR

STARTCHAR comma
ENCODING 44
SWIDTH 278 0
DWIDTH 4 0
BBX 2 5 1 -3
BITMAP
C0
C0
40
40
80
ENDCHAR

STARTCHAR hyphen
ENCODING 45
SWIDTH 319 0
DWIDTH 5 0
BBX 4 1 1 4
BITMAP
F0
ENDCHAR

STARTCHAR period
ENCODING 46
SWIDTH 278 0
DWIDTH 4 0
BBX 2 2 1 0
BITMAP
C0
C0
ENDCHAR

STARTCHAR slash
ENCODING 47
SWIDTH 481 0
DWIDTH 8 0
BBX 8 13 0 -2
BITMAP
01
02
02
04
04
08
08
10
20
20
40
40
80
ENDCHAR

STARTCHAR zero
ENCODING 48
SWIDTH 556 0
DWIDTH 9 0
BBX 7 11 1 0
BITMAP
38
44
C2
82
82
82
82
82
C6
44
38
ENDCHAR

STARTCHAR one
ENCODING 49
SWIDTH 556 0
DWIDTH 9 0
BBX 5 11 2 0
BITMAP
30
D0
10
10
10
10
10
10
10
10
78
ENDCHAR

STARTCHAR two
ENCODING 50
SWIDTH 556 0
DWIDTH 9 0
BBX 7 11 1 0
BITMAP
7C
86
82
02
02
04
0C
30
60
82
FE
ENDCHAR

STARTCHAR three
ENCODING 51
SWIDTH 556 0
DWIDTH 9 0
BBX 7 11 1 0
BITMAP
7C
84
86
06
0C
38
06
02
82
84
78
ENDCHAR

STARTCHAR four
ENCODING 52
SWIDTH 556 0
DWIDTH 9 0
BBX 8 12 1 -1
BITMAP
04
0C
1C
14
24
44
C4
FF
04
04
04
04
ENDCHAR

STARTCHAR five
ENCODING 53
SWIDTH 556 0
DWIDTH 9 0
BBX 8 11 0 0
BITMAP
7F
40
40
40
7E
03
01
01
41
C2
7C
ENDCHAR

STARTCHAR six
ENCODING 54
SWIDTH 556 0
DWIDTH 9 0
BBX 7 12 1 0
BITMAP
0C
30
40
C0
BC
C6
82
82
82
82
44
38
ENDCHAR

STARTCHAR seven
ENCODING 55
SWIDTH 556 0
DWIDTH 9 0
BBX 7 12 1 -1
BITMAP
FE
86
84
04
08
08
10
10
20
20
40
40
ENDCHAR

STARTCHAR eight
ENCODING 56
SWIDTH 556 0
DWIDTH 9 0
BBX 7 11 1 0
BITMAP
3C
44
42
42
64
3C
C6
82
82
C6
3C
ENDCHAR

STARTCHAR nine
ENCODING 57
SWIDTH 556 0
DWIDTH 9 0
BBX 7 11 1 0
BITMAP
38
44
82
82
82
C6
7E
04
08
30
40
ENDCHAR

STARTCHAR colon
ENCODING 58
SWIDTH 319 0
DWIDTH 5 0
BBX 2 8 2 0
BITMAP
C0
C0
00
00
00
00
C0
C0
ENDCHAR

STARTCHAR semicolon
ENCODING 59
SWIDTH 319 0
DWIDTH 5 0
BBX 3 11 1 -3
BITMAP
60
60
00
00
00
00
60
60
20
20
C0
ENDCHAR

STARTCHAR less
ENCODING 60
SWIDTH 833 0
DWIDTH 14 0
BBX 10 9 2 1
BITMAP
0040
0380
0C00
7000
C000
7000
0E00
0380
0040
ENDCHAR

STARTCHAR equal
ENCODING 61
SWIDTH 833 0
DWIDTH 14 0
BBX 10 4 2 3
BITMAP
FFC0
0000
0000
FFC0
ENDCHAR

STARTCHAR greater
ENCODING 62
SWIDTH 833 0
DWIDTH 14 0
BBX 10 9 2 1
BITMAP
8000
7000
0C00
0380
00C0
0380
0C00
7000
8000
ENDCHAR

STARTCHAR question
ENCODING 63
SWIDTH 486 0
DWIDTH 8 0
BBX 5 11 1 0
BITMAP
70
88
08
08
18
30
40
40
00
60
60
ENDCHAR

STARTCHAR at
ENCODING 64
SWIDTH 942 0
DWIDTH 16 0
BBX 13 14 2 -2
BITMAP
0FC0
1020
2010
4748
8888
9888
9088
9190
93B0
CDC0
4000
6000
3060
0F80
ENDCHAR

STARTCHAR A
ENCODING 65
SWIDTH 639 0
DWIDTH 11 0
BBX 11 11 0 0
BITMAP
0400
0E00
0A00
0A00
1300
1100
3F80
2180
2080
40C0
E1E0
ENDCHAR

STARTCHAR B
ENCODING 66
SWIDTH 604 0
DWIDTH 10 0
BBX 9 11 1 0
BITMAP
FE00
4300
4180
4100
4300
7E00
4180
4080
4080
4180
FE00
ENDCHAR

STARTCHAR C
ENCODING 67
SWIDTH 632 0
DWIDTH 10 0
BBX 9 11 1 0
BITMAP
1F00
6080
4080
8000
8000
8000
8000
8000
4080
6080
1F00
ENDCHAR

STARTCHAR D
ENCODING 68
SWIDTH 694 0
DWIDTH 12 0
BBX 11 11 1 0
BITMAP
FE00
41C0
4040
4020
4020
4020
4020
4020
4040
41C0
FF00
ENDCHAR

STARTCHAR E
ENCODING 69
SWIDTH 576 0
DWIDTH 10 0
BBX 9 11 1 0
BITMAP
FF00
4100
4100
4000
4200
7E00
4200
4000
4080
4080
FF80
ENDCHAR

STARTCHAR F
ENCODING 70
SWIDTH 537 0
DWIDTH 9 0
BBX 8 11 1 0
BITMAP
FF
41
41
40
42
7E
42
40
40
40
F0
ENDCHAR

STARTCHAR G
ENCODING 71
SWIDTH 694 0
DWIDTH 12 0
BBX 11 11 1 0
BITMAP
1FC0
7040
4040
8000
8000
81E0
8040
C040
4040
7040
1F80
ENDCHAR

STARTCHAR H
ENCODING 72
SWIDTH 738 0
DWIDTH 12 0
BBX 11 11 1 0
BITMAP
E0E0
4040
4040
4040
4040
7FC0
4040
4040
4040
4040
E0E0
ENDCHAR

STARTCHAR I
ENCODING 73
SWIDTH 324 0
DWIDTH 4 0
BBX 3 11 1 0
BITMAP
E0
40
40
40
40
40
40
40
40
40
E0
ENDCHAR

STARTCHAR J
ENCODING 74
SWIDTH 444 0
DWIDTH 7 0
BBX 7 11 0 0
BITMAP
1E
04
04
04
04
04
04
04
84
8C
F8
ENDCHAR

STARTCHAR K
ENCODING 75
SWIDTH 611 0
DWIDTH 10 0
BBX 9 11 1 0
BITMAP
E780
4200
4400
4800
5000
7000
5800
4C00
4600
4200
E380
ENDCHAR

STARTCHAR L
ENCODING 76
SWIDTH 520 0
DWIDTH 9 0
BBX 8 11 1 0
BITMAP
E0
40
40
40
40
40
40
40
41
41
FF
ENDCHAR

STARTCHAR M
ENCODING 77
SWIDTH 866 0
DWIDTH 14 0
BBX 13 11 1 0
BITMAP
E038
7030
5050
5850
58D0
4890
4C90
4510
4710
4610
E238
ENDCHAR

STARTCHAR N
ENCODING 78
SWIDTH 713 0
DWIDTH 12 0
BBX 11 11 1 0
BITMAP
E0E0
7040
7040
5840
4C40
4640
4640
4340
41C0
40C0
E0C0
ENDCHAR

STARTCHAR O
ENCODING 79
SWIDTH 731 0
DWIDTH 12 0
BBX 11 11 1 0
BITMAP
1F00
60C0
4060
8020
8020
8020
8020
8020
4060
60C0
1F00
ENDCHAR

STARTCHAR P
ENCODING 80
SWIDTH 558 0
DWIDTH 9 0
BBX 8 11 1 0
BITMAP
FE
43
41
41
41
42
7C
40
40
40
F0
ENDCHAR

STARTCHAR Q
ENCODING 81
SWIDTH 731 0
DWIDTH 12 0
BBX 11 14 1 -3
BITMAP
1F00
60C0
4060
8020
8020
8020
8020
8020
4060
60C0
1F00
0600
0600
03E0
ENDCHAR

STARTCHAR R
ENCODING 82
SWIDTH 646 0
DWIDTH 11 0
BBX 10 11 1 0
BITMAP
FE00
4300
4100
4100
4300
7C00
4600
4300
4100
4100
E0C0
ENDCHAR

STARTCHAR S
ENCODING 83
SWIDTH 556 0
DWIDTH 9 0
BBX 8 11 1 0
BITMAP
7F
C1
81
80
E0
7E
07
01
81
83
FC
ENDCHAR

STARTCHAR T
ENCODING 84
SWIDTH 597 0
DWIDTH 10 0
BBX 9 11 1 0
BITMAP
FF80
8880
8880
0800
0800
0800
0800
0800
0800
0800
1C00
ENDCHAR

STARTCHAR U
ENCODING 85
SWIDTH 694 0
DWIDTH 12 0
BBX 11 11 1 0
BITMAP
E0E0
4040
4040
4040
4040
4040
4040
4040
4040
6080
3F00
ENDCHAR

STARTCHAR V
ENCODING 86
SWIDTH 618 0
DWIDTH 10 0
BBX 11 11 0 0
BITMAP
F0E0
6040
2080
3080
3080
1100
1900
0A00
0A00
0E00
0400
ENDCHAR

STARTCHAR W
ENCODING 87
SWIDTH 928 0
DWIDTH 15 0
BBX 15 11 0 0
BITMAP
F11E
6184
6288
2288
3288
32C8
1450
1450
1C70
0820
0820
ENDCHAR

STARTCHAR X
ENCODING 88
SWIDTH 600 0
DWIDTH 10 0
BBX 10 11 0 0
BITMAP
F3C0
2100
3100
1A00
0C00
0C00
0E00
1200
2300
4180
E3C0
ENDCHAR

STARTCHAR Y
ENCODING 89
SWIDTH 586 0
DWIDTH 9 0
BBX 10 11 0 0
BITMAP
F1C0
6080
3100
1100
0A00
0C00
0400
0400
0400
0400
1E00
ENDCHAR

STARTCHAR Z
ENCODING 90
SWIDTH 586 0
DWIDTH 10 0
BBX 8 11 1 0
BITMAP
FF
83
86
0C
08
18
30
20
61
C1
FF
ENDCHAR

STARTCHAR bracketleft
ENCODING 91
SWIDTH 421 0
DWIDTH 7 0
BBX 4 14 2 -2
BITMAP
F0
80
80
80
80
80
80
80
80
80
80
80
80
F0
ENDCHAR

STARTCHAR backslash
ENCODING 92
SWIDTH 481 0
DWIDTH 8 0
BBX 8 13 0 -2
BITMAP
80
40
20
20
10
10
08
08
04
04
02
02
01
ENDCHAR

STARTCHAR bracketright
ENCODING 93
SWIDTH 421 0
DWIDTH 7 0
BBX 4 14 1 -2
BITMAP
F0
10
10
10
10
10
10
10
10
10
10
10
10
F0
ENDCHAR

STARTCHAR asciicircum
ENCODING 94
SWIDTH 1000 0
DWIDTH 17 0
BBX 10 5 3 7
BITMAP
0C00
1E00
3300
4080
8040
ENDCHAR

STARTCHAR underscore
ENCODING 95
SWIDTH 500 0
DWIDTH 8 0
BBX 8 1 0 -4
BITMAP
FF
ENDCHAR

STARTCHAR quoteleft
ENCODING 96
SWIDTH 201 0
DWIDTH 3 0
BBX 2 5 1 7
BITMAP
40
80
80
C0
C0
ENDCHAR

STARTCHAR a
ENCODING 97
SWIDTH 507 0
DWIDTH 8 0
BBX 7 8 1 0
BITMAP
78
C4
04
1C
64
84
8C
76
ENDCHAR

STARTCHAR b
ENCODING 98
SWIDTH 539 0
DWIDTH 9 0
BBX 7 13 1 0
BITMAP
C0
40
40
40
40
7C
46
42
42
42
42
44
78
ENDCHAR

STARTCHAR c
ENCODING 99
SWIDTH 446 0
DWIDTH 7 0
BBX 5 8 1 0
BITMAP
70
58
98
80
80
80
C8
78
ENDCHAR

STARTCHAR d
ENCODING 100
SWIDTH 565 0
DWIDTH 8 0
BBX 7 13 1 0
BITMAP
0C
04
04
04
04
3C
44
84
84
84
84
4C
76
ENDCHAR

STARTCHAR e
ENCODING 101
SWIDTH 491 0
DWIDTH 8 0
BBX 6 8 1 0
BITMAP
38
44
84
FC
80
80
44
78
ENDCHAR

STARTCHAR f
ENCODING 102
SWIDTH 321 0
DWIDTH 5 0
BBX 5 13 1 0
BITMAP
18
28
40
40
40
F0
40
40
40
40
40
40
E0
ENDCHAR

STARTCHAR g
ENCODING 103
SWIDTH 523 0
DWIDTH 9 0
BBX 8 12 1 -4
BITMAP
78
CF
84
CC
78
40
7C
86
82
82
84
78
ENDCHAR

STARTCHAR h
ENCODING 104
SWIDTH 564 0
DWIDTH 9 0
BBX 8 13 1 0
BITMAP
C0
40
40
40
40
7C
42
42
42
42
42
42
E7
ENDCHAR

STARTCHAR i
ENCODING 105
SWIDTH 280 0
DWIDTH 5 0
BBX 3 13 1 0
BITMAP
40
40
40
00
00
C0
40
40
40
40
40
40
E0
ENDCHAR

STARTCHAR j
ENCODING 106
SWIDTH 266 0
DWIDTH 4 0
BBX 5 17 -2 -4
BITMAP
08
08
08
00
00
18
08
08
08
08
08
08
08
08
08
C8
F0
ENDCHAR

STARTCHAR k
ENCODING 107
SWIDTH 518 0
DWIDTH 9 0
BBX 8 13 1 0
BITMAP
C0
40
40
40
40
4E
44
48
70
58
4C
46
E7
ENDCHAR

STARTCHAR l
ENCODING 108
SWIDTH 282 0
DWIDTH 5 0
BBX 3 13 1 0
BITMAP
C0
40
40
40
40
40
40
40
40
40
40
40
E0
ENDCHAR

STARTCHAR m
ENCODING 109
SWIDTH 843 0
DWIDTH 14 0
BBX 13 8 1 0
BITMAP
FFF0
4210
4210
4210
4210
4210
4210
EF78
ENDCHAR

STARTCHAR n
ENCODING 110
SWIDTH 569 0
DWIDTH 9 0
BBX 8 8 1 0
BITMAP
FE
42
42
42
42
42
42
E7
ENDCHAR

STARTCHAR o
ENCODING 111
SWIDTH 539 0
DWIDTH 9 0
BBX 7 8 1 0
BITMAP
38
44
82
82
82
82
44
38
ENDCHAR

STARTCHAR p
ENCODING 112
SWIDTH 551 0
DWIDTH 9 0
BBX 7 12 1 -4
BITMAP
FC
46
42
42
42
42
44
78
40
40
40
E0
ENDCHAR

STARTCHAR q
ENCODING 113
SWIDTH 531 0
DWIDTH 8 0
BBX 7 12 1 -4
BITMAP
3C
44
84
84
84
84
C4
7C
04
04
04
0E
ENDCHAR

STARTCHAR r
ENCODING 114
SWIDTH 382 0
DWIDTH 6 0
BBX 5 8 1 0
BITMAP
D8
60
40
40
40
40
40
E0
ENDCHAR

STARTCHAR s
ENCODING 115
SWIDTH 400 0
DWIDTH 7 0
BBX 5 8 1 0
BITMAP
78
88
80
E0
38
88
88
F0
ENDCHAR

STARTCHAR t
ENCODING 116
SWIDTH 335 0
DWIDTH 6 0
BBX 5 10 1 0
BITMAP
40
40
F8
40
40
40
40
40
40
78
ENDCHAR

STARTCHAR u
ENCODING 117
SWIDTH 569 0
DWIDTH 9 0
BBX 8 8 1 0
BITMAP
C6
42
42
42
42
42
46
3B
ENDCHAR

STARTCHAR v
ENCODING 118
SWIDTH 494 0
DWIDTH 9 0
BBX 9 8 0 0
BITMAP
F380
6100
2200
3200
1200
1400
1C00
0800
ENDCHAR

STARTCHAR w
ENCODING 119
SWIDTH 771 0
DWIDTH 13 0
BBX 13 8 0 0
BITMAP
E338
4310
6510
2590
24A0
38A0
18C0
1040
ENDCHAR

STARTCHAR x
ENCODING 120
SWIDTH 504 0
DWIDTH 8 0
BBX 8 8 0 0
BITMAP
F7
64
34
18
18
2C
46
E7
ENDCHAR

STARTCHAR y
ENCODING 121
SWIDTH 495 0
DWIDTH 9 0
BBX 9 12 0 -4
BITMAP
F380
6100
2200
3200
3200
1400
1C00
0800
0800
1000
5000
E000
ENDCHAR

STARTCHAR z
ENCODING 122
SWIDTH 468 0
DWIDTH 8 0
BBX 7 8 1 0
BITMAP
FE
8C
08
18
30
62
C2
FE
ENDCHAR

STARTCHAR braceleft
ENCODING 123
SWIDTH 486 0
DWIDTH 8 0
BBX 6 14 1 -2
BITMAP
0C
10
10
10
10
30
C0
30
10
10
10
10
10
0C
ENDCHAR

STARTCHAR bar
ENCODING 124
SWIDTH 500 0
DWIDTH 8 0
BBX 1 17 4 -4
BITMAP
80
80
80
80
80
80
80
80
80
80
80
80
80
80
80
80
80
ENDCHAR

STARTCHAR braceright
ENCODING 125
SWIDTH 486 0
DWIDTH 8 0
BBX 6 14 1 -2
BITMAP
C0
20
20
20
20
30
0C
30
20
20
20
20
20
C0
ENDCHAR

STARTCHAR c0126
ENCODING 126
SWIDTH 1000 0
DWIDTH 17 0
BBX 11 2 3 9
BITMAP
3C60
C780
ENDCHAR

STARTCHAR space
ENCODING 160
SWIDTH 278 0
DWIDTH 5 0
BBX 1 1 0 0
BITMAP
00
ENDCHAR

STARTCHAR exclamdown
ENCODING 161
SWIDTH 338 0
DWIDTH 6 0
BBX 2 11 2 0
BITMAP
C0
C0
00
40
C0
C0
C0
C0
C0
C0
C0
ENDCHAR

STARTCHAR cent
ENCODING 162
SWIDTH 556 0
DWIDTH 9 0
BBX 7 12 1 -2
BITMAP
10
10
3E
52
92
90
90
92
52
3E
10
10
ENDCHAR

STARTCHAR sterling
ENCODING 163
SWIDTH 556 0
DWIDTH 9 0
BBX 7 11 1 0
BITMAP
3C
26
44
40
40
F8
40
40
40
80
FE
ENDCHAR

STARTCHAR EuroSign
ENCODING 164
SWIDTH 534 0
DWIDTH 9 0
BBX 10 11 -1 0
BITMAP
0700
18C0
1040
2000
FF80
2000
FF00
2000
2000
10C0
0F00
ENDCHAR

STARTCHAR yen
ENCODING 165
SWIDTH 556 0
DWIDTH 9 0
BBX 9 11 0 0
BITMAP
F380
6100
2200
3200
F780
1400
0800
FF80
0800
0800
1C00
ENDCHAR

STARTCHAR Scaron
ENCODING 166
SWIDTH 556 0
DWIDTH 9 0
BBX 8 16 1 0
BITMAP
22
14
08
00
00
7F
C1
81
80
E0
7E
07
01
81
83
FC
ENDCHAR

STARTCHAR section
ENCODING 167
SWIDTH 500 0
DWIDTH 8 0
BBX 6 14 1 -2
BITMAP
78
C4
84
40
38
4C
84
84
E8
38
0C
84
88
70
ENDCHAR

STARTCHAR scaron
ENCODING 168
SWIDTH 400 0
DWIDTH 7 0
BBX 5 13 1 0
BITMAP
88
50
20
00
00
78
88
80
E0
38
88
88
F0
ENDCHAR

STARTCHAR copyright
ENCODING 169
SWIDTH 900 0
DWIDTH 15 0
BBX 13 13 1 -1
BITMAP
0F00
10C0
2020
4790
4890
9008
9008
9008
4890
4790
2020
10C0
0F00
ENDCHAR

STARTCHAR ordfeminine
ENCODING 170
SWIDTH 380 0
DWIDTH 6 0
BBX 5 6 1 6
BITMAP
60
90
30
D0
90
78
ENDCHAR

STARTCHAR guillemotleft
ENCODING 171
SWIDTH 442 0
DWIDTH 7 0
BBX 6 6 0 1
BITMAP
24
4C
98
98
4C
24
ENDCHAR

STARTCHAR logicalnot
ENCODING 172
SWIDTH 833 0
DWIDTH 14 0
BBX 10 4 2 3
BITMAP
FFC0
0040
0040
0040
ENDCHAR

STARTCHAR hyphen
ENCODING 173
SWIDTH 319 0
DWIDTH 5 0
BBX 4 1 1 4
BITMAP
F0
ENDCHAR

STARTCHAR registered
ENCODING 174
SWIDTH 900 0
DWIDTH 15 0
BBX 13 13 1 -1
BITMAP
0F00
10C0
2020
5F10
4890
8988
8F08
8988
4890
5CF0
2020
10C0
0F00
ENDCHAR

STARTCHAR macron
ENCODING 175
SWIDTH 500 0
DWIDTH 8 0
BBX 5 1 2 10
BITMAP
F8
ENDCHAR

STARTCHAR degree
ENCODING 176
SWIDTH 329 0
DWIDTH 5 0
BBX 5 5 0 7
BITMAP
70
88
88
88
70
ENDCHAR

STARTCHAR plusminus
ENCODING 177
SWIDTH 833 0
DWIDTH 14 0
BBX 9 10 3 0
BITMAP
0800
0800
0800
FF80
0800
0800
0800
0000
0000
FF80
ENDCHAR

STARTCHAR twosuperior
ENCODING 178
SWIDTH 367 0
DWIDTH 6 0
BBX 5 7 1 4
BITMAP
70
88
08
10
20
48
F8
ENDCHAR

STARTCHAR threesuperior
ENCODING 179
SWIDTH 367 0
DWIDTH 6 0
BBX 5 7 1 4
BITMAP
70
88
10
30
08
88
70
ENDCHAR

STARTCHAR Zcaron
ENCODING 180
SWIDTH 586 0
DWIDTH 10 0
BBX 8 16 1 0
BITMAP
22
14
08
00
00
FF
83
86
0C
08
18
30
20
61
C1
FF
ENDCHAR

STARTCHAR mu
ENCODING 181
SWIDTH 548 0
DWIDTH 9 0
BBX 10 10 -1 -3
BITMAP
3100
2100
2300
2200
6240
6640
5980
C000
C000
8000
ENDCHAR

STARTCHAR paragraph
ENCODING 182
SWIDTH 484 0
DWIDTH 8 0
BBX 8 13 0 -2
BITMAP
3F
7A
FA
FA
FA
7A
3A
02
02
02
02
02
02
ENDCHAR

STARTCHAR periodcentered
ENCODING 183
SWIDTH 278 0
DWIDTH 4 0
BBX 2 2 1 5
BITMAP
C0
C0
ENDCHAR

STARTCHAR zcaron
ENCODING 184
SWIDTH 468 0
DWIDTH 8 0
BBX 7 13 1 0
BITMAP
44
28
10
00
00
FE
8C
08
18
30
62
C2
FE
ENDCHAR

STARTCHAR onesuperior
ENCODING 185
SWIDTH 367 0
DWIDTH 7 0
BBX 3 7 2 4
BITMAP
40
C0
40
40
40
40
E0
ENDCHAR

STARTCHAR ordmasculine
ENCODING 186
SWIDTH 405 0
DWIDTH 7 0
BBX 6 6 1 6
BITMAP
30
4C
84
84
4C
30
ENDCHAR

STARTCHAR guillemotright
ENCODING 187
SWIDTH 442 0
DWIDTH 7 0
BBX 6 6 1 1
BITMAP
90
C8
64
64
C8
90
ENDCHAR

STARTCHAR Ligature_OE
ENCODING 188
SWIDTH 891 0
DWIDTH 15 0
BBX 14 11 1 0
BITMAP
1FF8
6208
4200
8200
8220
83E0
8220
8200
4204
6208
1FF8
ENDCHAR

STARTCHAR Ligature_oe
ENCODING 189
SWIDTH 712 0
DWIDTH 12 0
BBX 10 8 1 0
BITMAP
1880
4A40
8440
87C0
8400
8400
4C40
1880
ENDCHAR

STARTCHAR Ydiaeresis
ENCODING 190
SWIDTH 586 0
DWIDTH 9 0
BBX 10 15 0 0
BITMAP
1B00
1B00
0000
0000
F1C0
6080
3100
1100
0A00
0C00
0400
0400
0400
0400
1E00
ENDCHAR

STARTCHAR questiondown
ENCODING 191
SWIDTH 486 0
DWIDTH 8 0
BBX 5 11 1 0
BITMAP
30
30
00
10
10
60
C0
80
80
C8
70
ENDCHAR

STARTCHAR Agrave
ENCODING 192
SWIDTH 639 0
DWIDTH 11 0
BBX 11 16 0 0
BITMAP
1800
0800
0400
0000
0000
0400
0E00
0A00
0A00
1300
1100
3F80
2180
2080
40C0
E1E0
ENDCHAR

STARTCHAR Aacute
ENCODING 193
SWIDTH 639 0
DWIDTH 11 0
BBX 11 16 0 0
BITMAP
0600
0400
0800
0000
0000
0400
0E00
0A00
0A00
1300
1100
3F80
2180
2080
40C0
E1E0
ENDCHAR

STARTCHAR Acircumflex
ENCODING 194
SWIDTH 639 0
DWIDTH 11 0
BBX 11 16 0 0
BITMAP
0400
0A00
1100
0000
0000
0400
0E00
0A00
0A00
1300
1100
3F80
2180
2080
40C0
E1E0
ENDCHAR

STARTCHAR Atilde
ENCODING 195
SWIDTH 639 0
DWIDTH 11 0
BBX 11 15 0 0
BITMAP
0900
1600
0000
0000
0400
0E00
0A00
0A00
1300
1100
3F80
2180
2080
40C0
E1E0
ENDCHAR

STARTCHAR Adieresis
ENCODING 196
SWIDTH 639 0
DWIDTH 11 0
BBX 11 15 0 0
BITMAP
3600
3600
0000
0000
0400
0E00
0A00
0A00
1300
1100
3F80
2180
2080
40C0
E1E0
ENDCHAR

STARTCHAR Aring
ENCODING 197
SWIDTH 639 0
DWIDTH 11 0
BBX 11 16 0 0
BITMAP
0C00
1200
1200
0C00
0000
0400
0E00
0A00
0A00
1300
1100
3F80
2180
2080
40C0
E1E0
ENDCHAR

STARTCHAR AE
ENCODING 198
SWIDTH 866 0
DWIDTH 14 0
BBX 15 11 -1 0
BITMAP
03FC
0184
0284
0480
0488
08F8
1F88
1080
2082
4082
E1FE
ENDCHAR

STARTCHAR Ccedilla
ENCODING 199
SWIDTH 632 0
DWIDTH 10 0
BBX 9 15 1 -4
BITMAP
1F00
6080
4080
8000
8000
8000
8000
8000
4080
6080
1F00
0800
0E00
0200
1C00
ENDCHAR

STARTCHAR Egrave
ENCODING 200
SWIDTH 576 0
DWIDTH 10 0
BBX 9 16 1 0
BITMAP
3000
1000
0800
0000
0000
FF00
4100
4100
4000
4200
7E00
4200
4000
4080
4080
FF80
ENDCHAR

STARTCHAR Eacute
ENCODING 201
SWIDTH 576 0
DWIDTH 10 0
BBX 9 16 1 0
BITMAP
0C00
0800
1000
0000
0000
FF00
4100
4100
4000
4200
7E00
4200
4000
4080
4080
FF80
ENDCHAR

STARTCHAR Ecircumflex
ENCODING 202
SWIDTH 576 0
DWIDTH 10 0
BBX 9 16 1 0
BITMAP
0800
1400
2200
0000
0000
FF00
4100
4100
4000
4200
7E00
4200
4000
4080
4080
FF80
ENDCHAR

STARTCHAR Edieresis
ENCODING 203
SWIDTH 576 0
DWIDTH 10 0
BBX 9 15 1 0
BITMAP
6C00
6C00
0000
0000
FF00
4100
4100
4000
4200
7E00
4200
4000
4080
4080
FF80
ENDCHAR

STARTCHAR Igrave
ENCODING 204
SWIDTH 324 0
DWIDTH 4 0
BBX 3 16 1 0
BITMAP
C0
40
20
00
00
E0
40
40
40
40
40
40
40
40
40
E0
ENDCHAR

STARTCHAR Iacute
ENCODING 205
SWIDTH 324 0
DWIDTH 4 0
BBX 4 16 1 0
BITMAP
30
20
40
00
00
E0
40
40
40
40
40
40
40
40
40
E0
ENDCHAR

STARTCHAR Icircumflex
ENCODING 206
SWIDTH 324 0
DWIDTH 4 0
BBX 5 16 1 0
BITMAP
20
50
88
00
00
E0
40
40
40
40
40
40
40
40
40
E0
ENDCHAR

STARTCHAR Idieresis
ENCODING 207
SWIDTH 324 0
DWIDTH 4 0
BBX 5 15 0 0
BITMAP
D8
D8
00
00
70
20
20
20
20
20
20
20
20
20
70
ENDCHAR

STARTCHAR Eth
ENCODING 208
SWIDTH 694 0
DWIDTH 12 0
BBX 12 11 0 0
BITMAP
7F00
20E0
2020
2010
2010
FE10
2010
2010
2030
20E0
7F80
ENDCHAR

STARTCHAR Ntilde
ENCODING 209
SWIDTH 713 0
DWIDTH 12 0
BBX 11 15 1 0
BITMAP
0900
1600
0000
0000
E0E0
7040
7040
5840
4C40
4640
4640
4340
41C0
40C0
E0C0
ENDCHAR

STARTCHAR Ograve
ENCODING 210
SWIDTH 731 0
DWIDTH 12 0
BBX 11 16 1 0
BITMAP
1800
0800
0400
0000
0000
1F00
60C0
4060
8020
8020
8020
8020
8020
4060
60C0
1F00
ENDCHAR

STARTCHAR Oacute
ENCODING 211
SWIDTH 731 0
DWIDTH 12 0
BBX 11 16 1 0
BITMAP
0600
0400
0800
0000
0000
1F00
60C0
4060
8020
8020
8020
8020
8020
4060
60C0
1F00
ENDCHAR

STARTCHAR Ocircumflex
ENCODING 212
SWIDTH 731 0
DWIDTH 12 0
BBX 11 16 1 0
BITMAP
0400
0A00
1100
0000
0000
1F00
60C0
4060
8020
8020
8020
8020
8020
4060
60C0
1F00
ENDCHAR

STARTCHAR Otilde
ENCODING 213
SWIDTH 731 0
DWIDTH 12 0
BBX 11 15 1 0
BITMAP
0900
1600
0000
0000
1F00
60C0
4060
8020
8020
8020
8020
8020
4060
60C0
1F00
ENDCHAR

STARTCHAR Odieresis
ENCODING 214
SWIDTH 731 0
DWIDTH 12 0
BBX 11 15 1 0
BITMAP
3600
3600
0000
0000
1F00
60C0
4060
8020
8020
8020
8020
8020
4060
60C0
1F00
ENDCHAR

STARTCHAR multiply
ENCODING 215
SWIDTH 833 0
DWIDTH 14 0
BBX 9 9 3 1
BITMAP
8080
4100
2200
1400
0800
1400
2200
4100
8080
ENDCHAR

STARTCHAR Oslash
ENCODING 216
SWIDTH 731 0
DWIDTH 12 0
BBX 11 14 1 -1
BITMAP
0040
0040
1F40
60C0
4140
8320
8220
8420
8820
9020
7040
60C0
5F00
8000
ENDCHAR

STARTCHAR Ugrave
ENCODING 217
SWIDTH 694 0
DWIDTH 12 0
BBX 11 16 1 0
BITMAP
1800
0800
0400
0000
0000
E0E0
4040
4040
4040
4040
4040
4040
4040
4040
6080
3F00
ENDCHAR

STARTCHAR Uacute
ENCODING 218
SWIDTH 694 0
DWIDTH 12 0
BBX 11 16 1 0
BITMAP
0600
0400
0800
0000
0000
E0E0
4040
4040
4040
4040
4040
4040
4040
4040
6080
3F00
ENDCHAR

STARTCHAR Ucircumflex
ENCODING 219
SWIDTH 694 0
DWIDTH 12 0
BBX 11 16 1 0
BITMAP
0400
0A00
1100
0000
0000
E0E0
4040
4040
4040
4040
4040
4040
4040
4040
6080
3F00
ENDCHAR

STARTCHAR Udieresis
ENCODING 220
SWIDTH 694 0
DWIDTH 12 0
BBX 11 15 1 0
BITMAP
3600
3600
0000
0000
E0E0
4040
4040
4040
4040
4040
4040
4040
4040
6080
3F00
ENDCHAR

STARTCHAR Yacute
ENCODING 221
SWIDTH 586 0
DWIDTH 9 0
BBX 10 16 0 0
BITMAP
0600
0400
0800
0000
0000
F1C0
6080
3100
1100
0A00
0C00
0400
0400
0400
0400
1E00
ENDCHAR

STARTCHAR Thorn
ENCODING 222
SWIDTH 558 0
DWIDTH 9 0
BBX 8 11 1 0
BITMAP
E0
40
7C
43
41
41
41
46
7C
40
E0
ENDCHAR

STARTCHAR germandbls
ENCODING 223
SWIDTH 609 0
DWIDTH 10 0
BBX 8 13 1 0
BITMAP
1C
26
42
42
46
48
48
4C
46
41
49
49
EE
ENDCHAR

STARTCHAR agrave
ENCODING 224
SWIDTH 507 0
DWIDTH 8 0
BBX 7 13 1 0
BITMAP
60
20
10
00
00
78
C4
04
1C
64
84
8C
76
ENDCHAR

STARTCHAR aacute
ENCODING 225
SWIDTH 507 0
DWIDTH 8 0
BBX 7 13 1 0
BITMAP
18
10
20
00
00
78
C4
04
1C
64
84
8C
76
ENDCHAR

STARTCHAR acircumflex
ENCODING 226
SWIDTH 507 0
DWIDTH 8 0
BBX 7 13 1 0
BITMAP
10
28
44
00
00
78
C4
04
1C
64
84
8C
76
ENDCHAR

STARTCHAR atilde
ENCODING 227
SWIDTH 507 0
DWIDTH 8 0
BBX 7 12 1 0
BITMAP
24
58
00
00
78
C4
04
1C
64
84
8C
76
ENDCHAR

STARTCHAR adieresis
ENCODING 228
SWIDTH 507 0
DWIDTH 8 0
BBX 7 12 1 0
BITMAP
D8
D8
00
00
78
C4
04
1C
64
84
8C
76
ENDCHAR

STARTCHAR aring
ENCODING 229
SWIDTH 507 0
DWIDTH 8 0
BBX 7 13 1 0
BITMAP
38
48
48
38
00
78
C4
04
1C
64
84
8C
76
ENDCHAR

STARTCHAR ae
ENCODING 230
SWIDTH 725 0
DWIDTH 12 0
BBX 10 8 1 0
BITMAP
7B80
C440
0440
1FC0
6400
8400
8E40
73C0
ENDCHAR

STARTCHAR ccedilla
ENCODING 231
SWIDTH 446 0
DWIDTH 7 0
BBX 5 12 1 -4
BITMAP
70
58
98
80
80
80
C8
78
20
38
08
70
ENDCHAR

STARTCHAR egrave
ENCODING 232
SWIDTH 491 0
DWIDTH 8 0
BBX 6 13 1 0
BITMAP
60
20
10
00
00
38
44
84
FC
80
80
44
78
ENDCHAR

STARTCHAR eacute
ENCODING 233
SWIDTH 491 0
DWIDTH 8 0
BBX 6 13 1 0
BITMAP
18
10
20
00
00
38
44
84
FC
80
80
44
78
ENDCHAR

STARTCHAR ecircumflex
ENCODING 234
SWIDTH 491 0
DWIDTH 8 0
BBX 6 13 1 0
BITMAP
10
28
44
00
00
38
44
84
FC
80
80
44
78
ENDCHAR

STARTCHAR edieresis
ENCODING 235
SWIDTH 491 0
DWIDTH 8 0
BBX 6 12 1 0
BITMAP
D8
D8
00
00
38
44
84
FC
80
80
44
78
ENDCHAR

STARTCHAR igrave
ENCODING 236
SWIDTH 280 0
DWIDTH 5 0
BBX 4 13 0 0
BITMAP
C0
40
20
00
00
60
20
20
20
20
20
20
70
ENDCHAR

STARTCHAR iacute
ENCODING 237
SWIDTH 280 0
DWIDTH 5 0
BBX 3 13 1 0
BITMAP
60
40
80
00
00
C0
40
40
40
40
40
40
E0
ENDCHAR

STARTCHAR icircumflex
ENCODING 238
SWIDTH 280 0
DWIDTH 5 0
BBX 5 13 0 0
BITMAP
20
50
88
00
00
60
20
20
20
20
20
20
70
ENDCHAR

STARTCHAR idieresis
ENCODING 239
SWIDTH 280 0
DWIDTH 5 0
BBX 5 12 -1 0
BITMAP
D8
D8
00
00
30
10
10
10
10
10
10
38
ENDCHAR

STARTCHAR eth
ENCODING 240
SWIDTH 528 0
DWIDTH 9 0
BBX 7 13 1 0
BITMAP
64
38
18
68
0C
3C
46
82
82
82
82
44
38
ENDCHAR

STARTCHAR ntilde
ENCODING 241
SWIDTH 569 0
DWIDTH 9 0
BBX 8 12 1 0
BITMAP
12
2C
00
00
FE
42
42
42
42
42
42
E7
ENDCHAR

STARTCHAR ograve
ENCODING 242
SWIDTH 539 0
DWIDTH 9 0
BBX 7 13 1 0
BITMAP
30
10
08
00
00
38
44
82
82
82
82
44
38
ENDCHAR

STARTCHAR oacute
ENCODING 243
SWIDTH 539 0
DWIDTH 9 0
BBX 7 13 1 0
BITMAP
0C
08
10
00
00
38
44
82
82
82
82
44
38
ENDCHAR

STARTCHAR ocircumflex
ENCODING 244
SWIDTH 539 0
DWIDTH 9 0
BBX 7 13 1 0
BITMAP
08
14
22
00
00
38
44
82
82
82
82
44
38
ENDCHAR

STARTCHAR otilde
ENCODING 245
SWIDTH 539 0
DWIDTH 9 0
BBX 7 12 1 0
BITMAP
12
2C
00
00
38
44
82
82
82
82
44
38
ENDCHAR

STARTCHAR odieresis
ENCODING 246
SWIDTH 539 0
DWIDTH 9 0
BBX 7 12 1 0
BITMAP
6C
6C
00
00
38
44
82
82
82
82
44
38
ENDCHAR

STARTCHAR divide
ENCODING 247
SWIDTH 833 0
DWIDTH 14 0
BBX 10 9 2 1
BITMAP
0C00
0C00
0000
0000
FFC0
0000
0000
0C00
0C00
ENDCHAR

STARTCHAR oslash
ENCODING 248
SWIDTH 539 0
DWIDTH 9 0
BBX 7 10 1 -1
BITMAP
02
3C
44
8A
92
92
A2
44
78
80
ENDCHAR

STARTCHAR ugrave
ENCODING 249
SWIDTH 569 0
DWIDTH 9 0
BBX 8 13 1 0
BITMAP
30
10
08
00
00
C6
42
42
42
42
42
46
3B
ENDCHAR

STARTCHAR uacute
ENCODING 250
SWIDTH 569 0
DWIDTH 9 0
BBX 8 13 1 0
BITMAP
0C
08
10
00
00
C6
42
42
42
42
42
46
3B
ENDCHAR

STARTCHAR ucircumflex
ENCODING 251
SWIDTH 569 0
DWIDTH 9 0
BBX 8 13 1 0
BITMAP
08
14
22
00
00
C6
42
42
42
42
42
46
3B
ENDCHAR

STARTCHAR udieresis
ENCODING 252
SWIDTH 569 0
DWIDTH 9 0
BBX 8 12 1 0
BITMAP
6C
6C
00
00
C6
42
42
42
42
42
46
3B
ENDCHAR

STARTCHAR yacute
ENCODING 253
SWIDTH 495 0
DWIDTH 9 0
BBX 9 17 0 -4
BITMAP
0C00
0800
1000
0000
0000
F380
6100
2200
3200
3200
1400
1C00
0800
0800
1000
5000
E000
ENDCHAR

STARTCHAR thorn
ENCODING 254
SWIDTH 551 0
DWIDTH 9 0
BBX 7 17 1 -4
BITMAP
C0
40
40
40
40
7C
46
42
42
42
42
44
78
40
40
40
E0
ENDCHAR

STARTCHAR ydieresis
ENCODING 255
SWIDTH 495 0
DWIDTH 9 0
BBX 9 16 0 -4
BITMAP
6C00
6C00
0000
0000
F380
6100
2200
3200
3200
1400
1C00
0800
0800
1000
5000
E000
ENDCHAR
ENDFONT
